<svg version="1.2" xmlns="http://www.w3.org/2000/svg" viewBox="0 0 848 400" width="848" height="400">
	<title>Apple Pay-ai</title>
	<style>
		.s0 { fill: #000000 } 
	</style>
	<g id="svg3000">
		<g id="&lt;namedview3002&gt;">
		</g>
		<g id="g3051">
			<g id="layer1">
				<path id="path2997" fill-rule="evenodd" class="s0" d="m224.3 175.6c0.4 46.8 42.4 62.4 42.8 62.6-0.3 1.1-6.7 22.2-22.1 44-13.3 18.8-27.1 37.6-48.8 38-21.4 0.3-28.3-12.3-52.7-12.3-24.4 0-32.1 11.9-52.3 12.6-21 0.8-37-20.3-50.4-39.1-27.4-38.4-48.4-108.5-20.2-155.8 13.9-23.5 38.9-38.4 66-38.7 20.6-0.4 40.1 13.4 52.7 13.4 12.6 0 36.2-16.6 61.1-14.2 10.4 0.4 39.6 4.1 58.4 30.7-1.5 0.9-34.9 19.7-34.5 58.8zm-87.5-93c-2.5-17.7 6.6-36.3 16.9-47.8 11.5-13.1 30.9-22.8 47-23.5 2.1 18.1-5.4 36.3-16.6 49.4-11.1 13.1-29.4 23.3-47.3 21.9z"/>
			</g>
			<g id="text3006">
				<path id="path2995" fill-rule="evenodd" class="s0" d="m345.5 38.3q12.4-2 27.3-3.7 14.9-1.7 32.9-1.7 25.6 0 44.2 6.1 18.6 6 30.5 17.3 10.3 10 16.1 23.8 5.7 13.7 5.7 31.7 0 21.7-7.9 37.9-7.9 16.3-21.5 27.4-13.7 11-32.5 16.4-18.8 5.5-41 5.5-20.1 0-33.8-3v120.2h-20zm20 140.2q7.3 2.1 16.3 2.9 8.9 0.8 19.2 0.8 38.4 0 59.6-17.5 21.1-17.5 21.1-51.3 0-16.3-5.5-28.4-5.6-12.1-15.8-19.8-10.3-7.7-24.4-11.7-14.1-3.9-31.2-3.9-13.6 0-23.5 1-9.8 1.1-15.8 2.3v125.6z"/>
				<path id="path2998" fill-rule="evenodd" class="s0" d="m661.9 268.7q0 12.1 0.4 24.2 0.4 12 2.6 23.3h-18.8l-3-28.4h-0.9q-3.8 5.9-9.8 11.7-6 5.9-13.8 10.7-8 4.8-18 7.7-10 2.9-22 2.9-14.9 0-26.3-4.8-11.3-4.8-18.5-12.5-7.3-7.7-10.9-17.7-3.7-10.1-3.7-20.1 0-35.4 30.6-54.6 30.5-19.2 92-18.4v-5.4q0-8-1.5-18.2-1.5-10.2-6.6-19.4-5.1-9.1-15.4-15.4-10.2-6.3-27.7-6.3-13.3 0-26.3 4-13 4-23.7 11.1l-6.4-14.6q13.7-9.2 28.2-13.2 14.5-3.9 30.3-3.9 21.4 0 34.8 7 13.5 7.1 21.2 18.4 7.7 11.3 10.4 25.2 2.8 14 2.8 27.8v78.9zm-20.1-59.7q-16.2-0.4-33.9 1.2-17.7 1.7-32.7 7.3-14.9 5.7-24.8 16.5-9.8 10.9-9.8 28.8 0 21.3 12.4 31.3 12.4 10 27.8 10 12.3 0 22.2-3.3 9.8-3.4 17-9 7.3-5.6 12.2-12.7 4.9-7.1 7.5-14.6 2.2-8.4 2.2-12.1v-43.4z"/>
				<path id="path3000" class="s0" d="m701.2 115.9l52.1 130.2q4.2 10.9 8.1 22.3 3.8 11.5 6.8 21.1h0.9q3-9.2 6.8-20.6 3.9-11.5 8.6-23.6l48.7-129.4h21.3l-59.4 146.9q-8.9 23.4-16.8 42.4-7.9 18.9-16 34.2-8.2 15.2-16.5 26.9-8.3 11.7-18.6 20.4-11.9 10.4-22 15.3-10 4.8-13.4 6l-6.9-16.3q7.7-3.3 17.1-8.7 9.4-5.5 18.4-14.2 7.7-7.5 16.9-19.8 9.1-12.3 16.4-29.9 2.6-6.7 2.6-8.7 0-2.9-2.6-8.8l-73.9-185.7h21.4z"/>
			</g>
		</g>
	</g>
</svg>