<svg version="1.2" xmlns="http://www.w3.org/2000/svg" viewBox="0 0 900 675" width="900" height="675">
	<title>Google Pay-ai</title>
	<style>
		.s0 { fill: #585f65 } 
		.s1 { fill: #4c7cbe } 
		.s2 { fill: #29b161 } 
		.s3 { fill: #fbba27 } 
		.s4 { fill: #ef4f40 } 
	</style>
	<g id="katman 1">
		<g id="&lt;Group&gt;">
			<path id="&lt;Compound Path&gt;" fill-rule="evenodd" class="s0" d="m431 334.4v82h-26v-202.5h68.9c16.6-0.3 32.6 6 44.7 17.6 12.1 10.8 18.9 26.5 18.6 42.6 0.3 16.4-6.5 32-18.6 43-12.1 11.5-26.9 17.3-44.5 17.3zm0-95.6v70.7h43.6c9.6 0.3 19-3.5 25.6-10.5 13.8-13.2 13.9-35 0.7-48.8l-0.7-0.6c-6.6-7.1-16-11-25.6-10.7zm166.1 34.6c19.2 0 34.4 5.2 45.5 15.3 11.2 10.4 16.7 24.4 16.7 42.3v85.3h-24.9v-19.2h-1.1c-10.8 15.8-25.1 23.7-43 23.7-15.2 0-28.1-4.5-38.2-13.5-10.1-8.4-15.7-20.9-15.4-34 0-14.3 5.5-25.6 16.3-34.2 10.8-8.5 25.4-12.7 43.5-12.7 15.5 0 28.1 2.9 38.1 8.4v-6c0-8.9-3.9-17.3-10.7-22.9-6.9-6.2-15.8-9.6-25-9.6-14.5 0-26 6.2-34.6 18.4l-22.9-14.3c12.4-18 31-27 55.7-27zm-33.6 100.6c0 6.8 3.3 13.1 8.6 16.9 5.8 4.6 12.9 7 20.2 6.8 10.9 0 21.4-4.3 29.2-12.1 8.5-8.1 12.9-17.6 12.9-28.6q-12.1-9.6-33.9-9.6c-10.5 0-19.4 2.5-26.5 7.5-6.9 5.2-10.5 11.5-10.5 19.1zm238.5-96.1l-86.9 199.6h-26.8l32.3-69.8-57.1-129.6h28.2l41.2 99.4h0.6l40.3-99.4z"/>
			<path id="&lt;Path&gt;" class="s1" d="m325.8 316.6c0-7.9-0.6-15.8-1.9-23.6h-109.6v44.8h62.8c-2.6 14.3-11 27.3-23.3 35.3v29.1h37.5c21.9-20.2 34.5-50.1 34.5-85.6z"/>
			<path id="&lt;Path&gt;" class="s2" d="m214.3 430.3c31.3 0 57.8-10.4 77-28.1l-37.5-29.1c-10.5 7.1-23.9 11.2-39.5 11.2-30.4 0-56.1-20.5-65.3-48h-38.6v30c19.7 39.1 60 64 103.9 64z"/>
			<path id="&lt;Path&gt;" class="s3" d="m149 336.3c-4.8-14.4-4.8-30 0-44.6v-29.8h-38.6c-16.6 32.8-16.6 71.5 0 104.3z"/>
			<path id="&lt;Path&gt;" class="s4" d="m214.3 243.8c16.6-0.3 32.6 6 44.5 17.4l33.1-33.1c-21-19.8-48.7-30.6-77.6-30.3-43.9 0-84.2 24.8-103.9 64.1l38.6 30c9.2-27.6 34.9-48.1 65.3-48.1z"/>
		</g>
	</g>
</svg>