<?xml version="1.0" encoding="utf-8"?>
<!-- Generator: Adobe Illustrator 25.0.0, SVG Export Plug-In . SVG Version: 6.00 Build 0)  -->
<svg version="1.1" id="katman_1" xmlns="http://www.w3.org/2000/svg" xmlns:xlink="http://www.w3.org/1999/xlink" x="0px" y="0px"
	 viewBox="0 0 2500 2244" style="enable-background:new 0 0 2500 2244;" xml:space="preserve">
<style type="text/css">
	.st0{fill:none;}
	.st1{fill:#FFFFFF;}
	.st2{fill:#D50072;}
</style>
<path class="st0" d="M0.2,0h2499.7v2244H0.2V0z"/>
<path class="st1" d="M208.1,208.1v1829h1066.3c703.4,0,1008.4-393.9,1008.4-916.3c0-520.3-305-912.7-1008.4-912.7L208.1,208.1
	L208.1,208.1z"/>
<path d="M323.3,323.4h951.2c645.6,0,893.1,352.6,893.1,797.3c0,533.3-345.6,800.9-893.1,800.9H323.3V323.4z M415.5,415.6v1413.8h859
	c518.6,0,800.8-241.7,800.8-708.7c0-480-305.9-705.1-800.8-705.1L415.5,415.6L415.5,415.6z"/>
<path d="M530.8,1224.7h275v489.4h-275V1224.7z"/>
<circle cx="668.2" cy="978.1" r="170.9"/>
<path class="st2" d="M1382.4,1058.1v79.2h-195.9v-318h189.7v79.2h-110.5v36.8h104.5v79.2h-104.5v43.5L1382.4,1058.1L1382.4,1058.1z
	 M1416.7,1137.4l95.9-318.2h112.7l95.9,318.2h-82.5l-18-61.5h-103.6l-18,61.5H1416.7L1416.7,1137.4z M1540.3,996.7h57.3l-26.3-89.9
	h-4.8L1540.3,996.7L1540.3,996.7z M1761,819.2h79.3v238.9h117.3c-32.2-433.4-373.1-527.1-683-527.1H944.2v288.4h48.9
	c89.1,0,144.5,60.4,144.5,157.7c0,100.4-54,160.3-144.5,160.3h-48.9v577h330.3c503.7,0,679.1-233.9,685.3-577H1761L1761,819.2
	L1761,819.2z M944.2,898.6v159.5h48.9c33.9,0,65.3-9.8,65.3-81c0-69.5-34.9-78.5-65.3-78.5H944.2z"/>
</svg>
