<?xml version="1.0" encoding="utf-8"?>
<!-- Generator: Adobe Illustrator 28.0.0, SVG Export Plug-In . SVG Version: 6.00 Build 0)  -->
<svg version="1.0" id="katman_1" xmlns="http://www.w3.org/2000/svg" xmlns:xlink="http://www.w3.org/1999/xlink" x="0px" y="0px"
	 viewBox="0 0 754.42 745.67" style="enable-background:new 0 0 754.42 745.67;" xml:space="preserve">
<style type="text/css">
	.st0{fill:#D3A26C;}
</style>
<g>
	<path class="st0" d="M736.58,262.24c-22.23-67.17-61.3-124.42-114.04-171.17c-5.07-4.49-10.21-8.73-15.42-12.72
		C550.67,35.16,486.92,9.72,415.87,2.04C311-9.29,202.04,27.12,124.26,98.73c-18.06,16.63-35.07,34.82-49.74,54.51
		C35.38,205.76,11.46,264.62,2.75,329.81c-8.22,61.6,2.5,126.18,25.68,183.49c15.59,38.54,38.88,74.52,66.49,105.56
		c43.84,49.3,99.38,85.47,161.62,107.29c2.47,0.87,4.83,1.63,7.08,2.28c1.22,0.35,1.37,0.1,0.44-0.77
		c-9.1-8.57-18.05-17.68-26.85-27.34c-14.72-16.17-27.14-31.47-32.69-52c-0.16-0.59-0.35-0.6-0.57-0.03
		c-2.41,6.25-3.5,12.72-3.27,19.4c0.01,0.29-0.06,0.31-0.21,0.07c-16.77-26.84-14.06-62.57,10.8-83.52
		c2.79-2.35,5.69-4.58,8.69-6.67c0.46-0.33,0.59-0.22,0.4,0.31c-0.81,2.21-1.98,4.53-2.56,6.47c-6.94,22.81-2.66,47.98,10.33,67.78
		c8.03,12.24,16.87,22.09,26.4,32.17c0.37,0.39,0.55,0.32,0.56-0.22c0.23-20.76,6.27-39.29,18.12-55.58
		c19.38-26.65,49.82-40.29,81.34-46.36c9.25-1.77,18.45-3.41,27.6-4.91c0.28-0.05,0.49,0.26,0.34,0.5
		c-13.06,21.45-34.38,35.01-54.79,48.45c-26.28,17.3-49.6,43.15-50.6,76.44c-0.35,11.79,2.7,22.37,9.26,31.9
		c0.4,0.58,1,0.99,1.68,1.15c63.57,14.59,130.59,13.47,193.26-4.98c75.32-22.17,142.25-66.82,190.95-127.23
		c41.57-51.57,67.53-110.56,77.87-176.95C758.83,370.59,754.32,315.83,736.58,262.24z M195.62,551.42
		c-1.77,2.17-3.52,4.31-5.24,6.43c-12.27,15.09-14.98,37.28-12.82,55.58c0.3,2.5-0.17,2.66-1.41,0.47
		c-5.38-9.47-10.77-17.67-14.45-28.09c-8.39-23.76-5.91-54.96,13.44-73.21c0.48-0.45,1.27-0.17,1.34,0.49
		c1.54,14.01,10.48,26.97,19.14,37.57C195.83,550.91,195.83,551.17,195.62,551.42z M270.69,457.09
		c-5.24,15.76-17.58,38.06-35.43,41.3c-19.02,3.46-36.79,0.99-53.31-7.41c-1.45-0.73-1.82-0.37-1.11,1.09l2.16,4.49
		c0.14,0.29,0.05,0.4-0.26,0.31c-12.29-3.47-23.14-9.33-28.98-20c-0.17-0.32-0.66-0.23-0.71,0.13l-0.25,1.74
		c-0.24,1.75-0.61,1.78-1.1,0.08c-1.1-3.82-2.77-10.21-1.84-14.17c0.1-0.42-0.24-0.8-0.66-0.76c-0.3,0.03-0.59,0.17-0.86,0.44
		c-1.43,1.39-2.64,2.65-3.63,3.78c-0.93,1.06-1.18,0.92-0.76-0.42c0.8-2.54,1.35-5.38,2.42-7.76c4.76-10.65,15.7-25.48,27.32-29.33
		c4.74-1.57,13.1,1.49,17.83,3.53c6.66,2.88,13.34,5.72,20.04,8.53c19.11,7.99,38.41,11.48,58.85,13.98
		C270.62,456.67,270.76,456.89,270.69,457.09z M277.09,397.07c-23.06-8.36-44.31-10.41-67.56-10.23c-0.47,0.01-0.85,0.08-1.14,0.23
		c-0.27,0.14-0.27,0.54,0.01,0.67c1.82,0.87,3.61,1.57,5.37,2.1c13.89,4.23,27.63,8.89,41.22,13.99c5.09,1.91,10.05,4.02,14.88,6.33
		c0.27,0.13,0.34,0.47,0.15,0.7l-3.34,3.94c-0.26,0.31-0.58,0.4-0.97,0.27c-20.71-6.99-42.02-10.42-63.92-10.29
		c-0.15,0-0.22,0.07-0.23,0.22c-0.01,0.09-0.01,0.17-0.02,0.26c-0.01,0.08,0.03,0.14,0.11,0.17c10.39,3.94,19.79,7.81,31.07,12.06
		c7.27,2.73,14.49,5.69,21.64,8.86c0.32,0.14,0.34,0.32,0.07,0.54c-25.39,20.7-67.11-7.27-85.16-25.46
		c-1.07-1.07-2.69-3.28-4.17-4.77c-0.42-0.43-0.63-0.34-0.64,0.27c-0.12,10.81-2.46,20.92-9.14,29.63c-1.3,1.69-2.54,3.37-3.73,5.05
		c-0.12,0.18-0.39,0.19-0.52,0.02c-8.35-10.09-12.16-21.2-14.72-34.55c-2.62-13.69-2.39-26.94,1.77-40.51
		c0.09-0.29,0.24-0.33,0.46-0.12c7.12,6.78,13.75,13.99,19.9,21.62c1.31,1.62,2.76,3.16,4.37,4.62c0.36,0.32,0.93,0.12,1.01-0.35
		c1.78-10.96,9.58-25.61,20.65-29.57c17.54-6.28,35.87-13.54,38.14-34.69c0.11-0.99-0.19-1.13-0.9-0.42
		c-8.09,8.18-15.38,15.14-28.07,16.2c-0.3,0.03-0.46-0.11-0.49-0.41c-0.39-3.59-0.17-7.13,0.64-10.62c0.17-0.76-0.02-0.86-0.57-0.31
		c-4.14,4.17-10.31,8.62-16.31,9.55c-4.63,0.72-9.27,1.41-13.91,2.08c-4.59,0.66-6.06,5.49-7.9,9.09c-0.15,0.28-0.46,0.44-0.78,0.4
		c-7.89-1.17-12.26-4.79-18.79-8.67c-0.38-0.23-0.58-0.12-0.61,0.33l-0.15,2.48c-0.03,0.43-0.22,0.53-0.59,0.3
		c-0.52-0.33-0.87-0.81-1.06-1.43c-3.06-10.19,5.37-17.56,12.51-23c8.17-6.23,16.5-12.24,24.99-18.02
		c18.99-12.93,32.75-27.56,48.71-45.3c0.47-0.53,0.97-1.69,1.04-2.5c0.72-8.14,2.08-16.17,4.09-24.08c1.44-5.66,4.5-10.2,9.17-13.61
		c12.16-8.89,24.75-17.11,37.78-24.65c1.89-1.09,3.16-1.76,3.82-2.01c3.26-1.22,8.66,4.06,10.99,6.19c0.33,0.3,0.84,0.29,1.17-0.02
		c16.75-16.22,44.33-23.34,67.6-24.35c11.55-0.5,20.57,3.97,27.08,13.41c0.43,0.62,0.32,1.12-0.33,1.51
		c-10.11,5.96-17.87,16.48-17.26,28.83c0.01,0.28,0.32,0.43,0.56,0.29c8.95-5.58,18.67-8.92,29.17-10.01
		c0.31-0.03,0.42,0.1,0.33,0.41c-9.23,31.15,3.49,55.33,17.15,82.11c11.9,23.33,17.45,49.87,7.24,74.84
		c-12.25,29.98-42.07,52.28-72.28,62.33c-5.65,1.88-11.32,3.51-17.01,4.9c-0.55,0.14-0.59,0.06-0.1-0.24
		c30.61-18.51,52.51-45.92,58.91-81.69c4.47-24.93-0.94-51.84-14.9-72.7c-0.11-0.17-0.37-0.17-0.48,0
		c-0.05,0.08-0.11,0.16-0.16,0.23c-0.09,0.13-0.12,0.28-0.07,0.43c7.74,23.92,3.14,53.67-23.4,63.89
		c-9.06,3.49-21.38,5.61-30.93,3.41c-0.59-0.13-1.05,0.51-0.73,1.03c9.77,15.63-3.4,32.63-17.3,39.25c-2,0.96-3.37,0.96-5.62,0.29
		c-9.05-2.71-17.68-4.88-25.87-6.52c-16.19-3.24-32.82-3.63-49.55-3.03c-0.29,0.01-0.48,0.31-0.36,0.58
		c0.12,0.27,0.35,0.47,0.68,0.61c2.8,1.14,5.64,2.17,8.52,3.1c21.59,6.94,36.57,11.41,53.75,18.61c0.8,0.33,0.92,0.83,0.36,1.49
		l-3.29,3.86C278.64,397.11,277.82,397.33,277.09,397.07z M451.44,480.8c-16.97,28.38-40.74,53.85-70.45,68.89
		c-22.96,11.62-50.2,18-77.39,24.53c-5.42,1.3-15.46,3.35-23.04,5.5c-0.72,0.21-0.8,0.07-0.23-0.42c4.35-3.71,8.9-8.26,12.82-11.5
		c15.66-12.96,32.99-22.2,51.27-30.87c16.35-7.75,32.72-15.48,49.1-23.18c19.76-9.29,40.25-19.85,57.51-33.32
		C451.82,479.81,451.96,479.93,451.44,480.8z M458.52,440.22c-25.9,31.56-59.31,55.86-98.04,69.19c-6.75,2.33-13.5,4.42-20.26,6.28
		c-0.88,0.25-0.95,0.1-0.22-0.45c12.61-9.31,24.65-19.61,36.11-30.91c20.07-19.8,39.9-40.86,56.1-63.63
		c17.31-24.33,28.51-53.48,26.32-83.44c-1.69-23.13-9.84-44.9-21.62-64.65c-0.49-0.83-0.37-0.94,0.37-0.32
		c2.22,1.85,4.52,3.71,6.9,5.59c15.51,12.22,27.5,28.17,35.36,46.13C497.64,365.38,486.05,406.67,458.52,440.22z M519.84,221.31
		c-9,14.15-21.34,20.72-37.01,25.88c-0.53,0.18-0.58,0.08-0.16-0.29c8.53-7.49,15.33-16.46,20.38-26.91
		c7.88-16.32,10.65-40.66-1.12-56.12c-2.4-3.15-5.58-6.33-9.55-9.53c-0.25-0.21-0.52-0.22-0.79-0.04
		c-10.79,7.06-19.24,14.66-25.26,26.22c-0.56,1.09-1.15,3.08-1.93,4.51c-0.25,0.46-0.46,0.44-0.63-0.05l-6.21-17.69
		c-0.1-0.27-0.46-0.33-0.63-0.09c-5.45,7.75-8.8,16.33-10.07,25.76c-0.05,0.44-0.19,0.47-0.41,0.08
		c-4.15-7.37-6.27-15.26-6.38-23.68c-0.14-11.97,5.14-19.16,15.27-24.77c9.22-5.1,19.02-8.62,29.4-10.56
		c3.99-0.75,7.75-1.09,11.29-1.04c5.26,0.07,15.95,10.2,19.56,13.97C533.23,165.43,532.97,200.67,519.84,221.31z M690.09,488.56
		c-0.59,3.88-1.94,8.38-2.81,12.55c-0.15,0.73-0.31,0.73-0.48,0c-2.9-12.55-8.65-23.76-17.26-33.63c-1.36-1.56-2.2-4.87-2.66-7.42
		c-3.95-21.83-13.88-40.48-29.81-55.94c-0.29-0.29-0.24-0.4,0.17-0.33c5.31,0.87,10.18,2.41,14.61,4.63
		c8.45,4.24,15.69,10.18,21.74,17.81C688.13,444.6,693.63,465.37,690.09,488.56z M701.2,450.02c-0.63,1.07-0.82,1-0.59-0.22
		c1.73-9,1.34-20.83-3.39-29.16c-1.69-2.99-3.35-5.19-3.84-8.75c-2.09-15.28-4.17-29.31-9.19-43.3
		c-8.65-24.17-26.69-45.63-49.12-58.31c-0.8-0.45-0.74-0.67,0.18-0.66c12.75,0.11,24.64,4.25,35.99,9.76
		c0.51,0.25,0.69,0.1,0.53-0.45c-7.17-24.75-27.23-46.18-48.37-60.01c-4.69-3.07-9.39-5.54-14.08-7.39
		c-1.16-0.45-1.12-0.78,0.11-0.98c13.76-2.21,26.18-0.96,39.72,2.05c0.39,0.09,0.69-0.33,0.48-0.67
		c-8.49-13.9-20.09-25.86-32.63-36.11c-11.68-9.54-22.58-16.66-36.39-20.75c-0.75-0.22-0.75-0.41,0.02-0.58
		c11.19-2.43,22.61-2.63,34.24-0.62c0.39,0.07,0.68,0.06,0.86-0.05c0.38-0.21,0.43-0.74,0.1-1.02
		c-14.17-12.36-31.92-22.06-48.79-30.18c-0.66-0.32-1.15-0.93-1.31-1.65c-1.01-4.45-2.88-13.89-7.93-15.52
		c-8.34-2.69-16.67-5.08-25-7.18c-1.11-0.28-1.11-0.54,0.02-0.77c10.25-2.13,20.58-2.64,30.99-1.52c0.91,0.1,1.02-0.16,0.35-0.77
		c-31.96-29.09-74.51-40.31-116.91-32.24c-0.57,0.11-0.67-0.06-0.28-0.49c5.99-6.79,14.38-13.68,23.46-15.91
		c0.43-0.11,0.51-0.34,0.25-0.69c-0.31-0.42-0.86-0.69-1.63-0.82c-19.54-3.15-38.02-3.15-57.66,3.03
		c-15.63,4.91-28.66,13.19-39.07,24.84c-1.21,1.34-1.46,1.18-0.76-0.48c7.8-18.7,16.91-33.44,35.05-43.75
		c0.17-0.1,0.13-0.35-0.06-0.4c-0.29-0.07-0.63-0.1-1.02-0.07c-34.92,2.12-63.59,18.98-78.89,51.21c-0.58,1.22-1.1,3.36-1.91,4.95
		c-0.26,0.51-0.39,0.48-0.4-0.1c-0.17-24.02,10.13-49.05,29.85-63.04c1.71-1.21,1.56-1.53-0.46-0.95
		c-31.78,9.19-61.11,36.59-63.07,70.91c-0.06,1.15-0.2,1.15-0.41,0.02c-0.57-3.07-1.07-6.12-1.52-9.13
		c-1.45-9.89-0.69-19.94,1.6-29.63c1.57-6.64,3-11.99,5.97-17.52c0.13-0.23-0.06-0.51-0.32-0.48c-0.71,0.09-1.37,0.34-1.98,0.75
		c-24.68,16.85-40.99,49.95-25.66,79c0.65,1.25,0.39,1.49-0.8,0.74c-2.41-1.53-4.99-3.34-7.76-5.45
		c-9.62-7.33-12.4-19.42-11.25-31.01c0.26-2.6,0.87-4.9,1.82-6.9c0.04-0.09,0.03-0.17-0.03-0.25c-0.06-0.09-0.12-0.18-0.19-0.27
		c-0.1-0.14-0.3-0.16-0.43-0.03c-14.18,14.49-19.49,32.32-8.98,50.83c0.12,0.21-0.04,0.47-0.28,0.47
		c-8.84-0.03-16.03,0.24-24.53-4.63c-0.37-0.21-0.52-0.1-0.47,0.31c1.64,12.42,8.39,22.38,16.34,31.65
		c0.28,0.33,0.25,0.83-0.08,1.12c-7.94,7.08-14.83,14.3-19.61,24c-4.38,8.88-7.94,23.22-12.48,31.82
		c-3.92,7.42-9.31,13.04-14.71,19.36c-0.18,0.22-0.54,0.13-0.59-0.15c-1.77-9.22-4.58-15.4-0.64-25.29
		c3.93-9.86,10.01-14.81,18.42-20.72c0.27-0.19,0.26-0.37-0.01-0.56c-6.54-4.31-14.54-7.88-22.51-7.62
		c-0.25,0.01-0.41-0.26-0.29-0.48c6.51-11.45,17.95-17.09,30.47-19.94c0.36-0.08,0.42-0.26,0.17-0.53
		c-2.49-2.72-4.83-5.56-7.04-8.53c-12.33-16.6-13.1-38.51-5.13-57.05c0.05-0.1,0.19-0.12,0.26-0.03c6.15,7.24,13.87,9.09,23.05,9.13
		c0.33,0,0.56-0.32,0.46-0.63c-7.08-21.65-0.86-38.61,12.66-55.79c0.19-0.25,0.38-0.24,0.55,0.02c4.34,6.41,10.12,11.06,17.33,13.97
		c0.29,0.12,0.47,0.02,0.53-0.29c4.84-27.3,29.85-45.67,54.78-53.46c0.29-0.09,0.57,0.14,0.55,0.44
		c-0.41,6.22,0.31,12.29,2.18,18.22c0.27,0.84,0.67,0.91,1.2,0.2c0.43-0.57,1.07-1.22,1.91-1.95c26.2-22.71,60.77-25.28,93.44-19.21
		c0.42,0.08,0.54,0.62,0.2,0.87c-6.53,4.82-12.82,10.03-18.86,15.62c-0.9,0.83-2.71,2.08-3.95,3.24c-0.48,0.46-0.4,0.62,0.25,0.48
		c17.54-3.72,35.56-4.26,53.25-5.68c23.05-1.85,45.08,1.67,66.09,10.58c0.47,0.19,0.46,0.38-0.01,0.55
		c-8.82,3.17-17.44,6.81-25.86,10.92c-1.06,0.51-1,0.85,0.17,1c29.84,3.76,59.23,11.42,84.53,28.28
		c14.18,9.45,26.52,20.61,41.33,34.26c0.29,0.26,0.28,0.51-0.03,0.75l-13.85,10.83c-0.27,0.21-0.18,0.64,0.15,0.72
		c24.41,5.9,43.52,18.76,61.94,35.4c0.18,0.16,0.14,0.45-0.08,0.56l-27.21,13.98c-0.35,0.18-0.31,0.69,0.06,0.81
		c18.42,5.94,36.67,19.82,49.61,34.02c4.78,5.23,9.56,10.45,14.33,15.64c0.35,0.38,0.28,0.66-0.21,0.83l-30.68,10.65
		c-0.42,0.15-0.45,0.35-0.09,0.62c29.45,21.31,49.23,55,51.48,91.64c0.05,0.92-0.24,1.04-0.87,0.37c-2.03-2.16-3.92-3.83-5.69-5.02
		c-1.91-1.29-2.36-0.9-1.35,1.17C716.33,379.62,718.97,419.52,701.2,450.02z"/>
	<path class="st0" d="M251.12,285.23c13.05,3.64,19.85-1.29,29.57-8.54c4.18-3.12,8.11-3.4,13.71-4.11
		c11.7-1.47,20.17-7.85,27.04-17c0.52-0.69,1.34-1.07,2.2-1.02l21.94,1.32c1.62,0.09,1.76-0.31,0.42-1.22
		c-15.47-10.45-37.17-21.81-56.16-13.65c-0.1,0.04-0.2-0.05-0.18-0.15c2.1-12.93,8.31-23.39,18.64-31.37
		c0.57-0.45,0.5-0.61-0.21-0.48c-13.53,2.31-22.17,10.15-25.9,23.54c-0.91,3.27-1.81,7.92-2.69,13.95
		c-2.26,15.5-13.48,28.31-26.1,36.96c-0.84,0.58-1.5,0.55-2.36,0.99C250.7,284.62,250.75,285.13,251.12,285.23z"/>
</g>
</svg>
