<?xml version="1.0" encoding="utf-8"?>
<!-- Generator: Adobe Illustrator 25.0.1, SVG Export Plug-In . SVG Version: 6.00 Build 0)  -->
<svg version="1.0" id="katman_1" xmlns="http://www.w3.org/2000/svg" xmlns:xlink="http://www.w3.org/1999/xlink" x="0px" y="0px"
	 viewBox="0 0 560 400" style="enable-background:new 0 0 560 400;" xml:space="preserve">
<style type="text/css">
	.st0{clip-path:url(#SVGID_2_);}
	.st1{fill-rule:evenodd;clip-rule:evenodd;fill:#0099DF;}
	.st2{fill-rule:evenodd;clip-rule:evenodd;fill:#6C6BBD;}
	.st3{fill-rule:evenodd;clip-rule:evenodd;fill:#EB001B;}
	.st4{fill-rule:evenodd;clip-rule:evenodd;fill:#231F20;}
</style>
<g>
	<defs>
		<rect id="SVGID_1_" x="99" y="59.2" width="362" height="281.6"/>
	</defs>
	<clipPath id="SVGID_2_">
		<use xlink:href="#SVGID_1_"  style="overflow:visible;"/>
	</clipPath>
	<g class="st0">
		<path class="st1" d="M457.7,240.4v-4.3h-1.1l-1.3,3l-1.3-3h-1.1v4.3h0.8v-3.3l1.2,2.8h0.8l1.2-2.8v3.3H457.7z M450.5,240.4v-3.6
			h1.5v-0.7h-3.7v0.7h1.5v3.6H450.5z"/>
		<path class="st2" d="M231.2,83.2h97.9v175.9h-97.9V83.2z"/>
		<path class="st3" d="M237.5,171.1c0-35.7,16.7-67.5,42.7-88c-19-15-43-23.9-69.1-23.9c-61.8,0-111.9,50.1-111.9,111.9
			c0,61.8,50.1,111.9,111.9,111.9c26.1,0,50.1-8.9,69.1-23.9C254.2,238.6,237.5,206.8,237.5,171.1"/>
		<path class="st1" d="M461.1,171.1c0,61.8-50.1,111.9-111.9,111.9c-26.1,0-50.1-8.9-69.1-23.9c26-20.5,42.7-52.3,42.7-88
			c0-35.7-16.7-67.5-42.7-88c19-15,43-23.9,69.1-23.9C411.1,59.3,461.1,109.4,461.1,171.1"/>
		<path class="st4" d="M362.1,308.8c1.3,0,3.2,0.2,4.6,0.8l-2,6.1c-1.4-0.6-2.7-0.7-4-0.7c-4.2,0-6.3,2.7-6.3,7.6v16.7h-6.5v-29.7
			h6.4v3.6C356,310.5,358.4,308.8,362.1,308.8 M338.2,315.4h-10.6v13.4c0,3,1.1,5,4.3,5c1.7,0,3.8-0.6,5.7-1.7l1.9,5.5
			c-2,1.4-5.3,2.3-8.1,2.3c-7.6,0-10.3-4.1-10.3-11v-13.5h-6v-5.9h6v-9h6.5v9h10.6L338.2,315.4z M255.5,321.8
			c0.7-4.3,3.3-7.2,7.9-7.2c4.2,0,6.8,2.6,7.5,7.2H255.5z M277.7,324.4c-0.1-9.3-5.8-15.6-14.1-15.6c-8.7,0-14.8,6.3-14.8,15.6
			c0,9.4,6.3,15.6,15.2,15.6c4.5,0,8.6-1.1,12.2-4.2L273,331c-2.5,2-5.7,3.1-8.6,3.1c-4.2,0-8-1.9-8.9-7.3h22.1
			C277.6,326.1,277.7,325.3,277.7,324.4 M306.1,317.1c-1.8-1.1-5.5-2.6-9.3-2.6c-3.5,0-5.7,1.3-5.7,3.5c0,2,2.2,2.5,5,2.9l3,0.4
			c6.5,0.9,10.4,3.7,10.4,8.9c0,5.7-5,9.7-13.5,9.7c-4.9,0-9.3-1.2-12.9-3.9l3-5c2.2,1.7,5.4,3.1,9.9,3.1c4.4,0,6.8-1.3,6.8-3.6
			c0-1.7-1.7-2.6-5.2-3.1l-3-0.4c-6.6-0.9-10.3-3.9-10.3-8.8c0-5.9,4.9-9.5,12.4-9.5c4.7,0,9,1.1,12.1,3.1L306.1,317.1z
			 M385.8,314.9c-1.3,0-2.6,0.2-3.7,0.7c-1.1,0.5-2.1,1.1-3,2c-0.8,0.8-1.5,1.8-2,3c-0.5,1.2-0.7,2.5-0.7,3.9c0,1.4,0.2,2.7,0.7,3.9
			c0.5,1.2,1.1,2.2,2,3c0.8,0.8,1.8,1.5,3,2c1.1,0.5,2.4,0.7,3.7,0.7c1.3,0,2.6-0.2,3.7-0.7c1.1-0.5,2.1-1.1,3-2
			c0.8-0.8,1.5-1.9,2-3c0.5-1.2,0.7-2.5,0.7-3.9c0-1.4-0.2-2.7-0.7-3.9c-0.5-1.2-1.1-2.2-2-3c-0.8-0.8-1.8-1.5-3-2
			C388.3,315.2,387.1,314.9,385.8,314.9 M385.8,308.8c2.3,0,4.4,0.4,6.4,1.2c2,0.8,3.7,1.9,5.1,3.3c1.4,1.4,2.6,3.1,3.4,5
			c0.8,1.9,1.2,4,1.2,6.2s-0.4,4.3-1.2,6.2c-0.8,1.9-1.9,3.6-3.4,5c-1.4,1.4-3.1,2.5-5.1,3.3c-2,0.8-4.1,1.2-6.4,1.2
			c-2.3,0-4.4-0.4-6.4-1.2c-2-0.8-3.6-1.9-5.1-3.3c-1.4-1.4-2.5-3.1-3.3-5c-0.8-1.9-1.2-4-1.2-6.2s0.4-4.3,1.2-6.2
			c0.8-1.9,1.9-3.6,3.3-5c1.4-1.4,3.1-2.5,5.1-3.3C381.3,309.2,383.4,308.8,385.8,308.8 M217.8,324.4c0-5.2,3.4-9.5,9-9.5
			c5.3,0,8.9,4.1,8.9,9.5s-3.6,9.5-8.9,9.5C221.2,333.9,217.8,329.6,217.8,324.4 M241.8,324.4v-14.9h-6.5v3.6
			c-2.1-2.7-5.2-4.4-9.4-4.4c-8.3,0-14.9,6.5-14.9,15.6c0,9.1,6.5,15.6,14.9,15.6c4.2,0,7.3-1.7,9.4-4.4v3.6h6.5V324.4z
			 M205.4,339.2v-18.6c0-7-4.5-11.7-11.7-11.8c-3.8-0.1-7.7,1.1-10.4,5.3c-2-3.3-5.3-5.3-9.8-5.3c-3.2,0-6.3,0.9-8.7,4.4v-3.7h-6.5
			v29.7h6.5v-16.5c0-5.2,2.9-7.9,7.3-7.9c4.3,0,6.5,2.8,6.5,7.8v16.5h6.5v-16.5c0-5.2,3-7.9,7.3-7.9c4.4,0,6.5,2.8,6.5,7.8v16.5
			L205.4,339.2z M408.8,337v0.7h0.7c0.2,0,0.3,0,0.4-0.1c0.1-0.1,0.1-0.2,0.1-0.3c0-0.1-0.1-0.2-0.1-0.3c-0.1-0.1-0.2-0.1-0.4-0.1
			L408.8,337z M409.5,336.5c0.3,0,0.6,0.1,0.8,0.2c0.2,0.2,0.3,0.4,0.3,0.6c0,0.2-0.1,0.4-0.2,0.6c-0.1,0.1-0.4,0.2-0.6,0.3l0.9,1
			h-0.7l-0.8-1h-0.3v1h-0.6v-2.7H409.5z M409.3,340.2c0.3,0,0.6-0.1,0.9-0.2c0.3-0.1,0.5-0.3,0.7-0.5c0.2-0.2,0.4-0.4,0.5-0.7
			c0.1-0.3,0.2-0.6,0.2-0.9s-0.1-0.6-0.2-0.9c-0.1-0.3-0.3-0.5-0.5-0.7c-0.2-0.2-0.4-0.4-0.7-0.5c-0.3-0.1-0.6-0.2-0.9-0.2
			s-0.6,0.1-0.9,0.2c-0.3,0.1-0.5,0.3-0.7,0.5c-0.2,0.2-0.4,0.5-0.5,0.7c-0.1,0.3-0.2,0.6-0.2,0.9s0.1,0.6,0.2,0.9
			c0.1,0.3,0.3,0.5,0.5,0.7c0.2,0.2,0.5,0.4,0.7,0.5C408.7,340.1,409,340.2,409.3,340.2 M409.3,334.9c0.4,0,0.8,0.1,1.2,0.2
			c0.4,0.1,0.7,0.4,1,0.6c0.3,0.3,0.5,0.6,0.6,0.9c0.2,0.4,0.2,0.7,0.2,1.1c0,0.4-0.1,0.8-0.2,1.1c-0.2,0.4-0.4,0.7-0.6,0.9
			c-0.3,0.3-0.6,0.5-1,0.6c-0.4,0.2-0.7,0.2-1.2,0.2c-0.4,0-0.8-0.1-1.2-0.2c-0.4-0.2-0.7-0.4-1-0.6c-0.3-0.3-0.5-0.6-0.6-0.9
			c-0.2-0.4-0.2-0.7-0.2-1.1c0-0.4,0.1-0.8,0.2-1.1c0.2-0.4,0.4-0.7,0.6-0.9c0.3-0.3,0.6-0.5,1-0.6
			C408.5,335,408.9,334.9,409.3,334.9"/>
	</g>
</g>
</svg>
