<?xml version="1.0" encoding="utf-8"?>
<!-- Generator: Adobe Illustrator 26.0.3, SVG Export Plug-In . SVG Version: 6.00 Build 0)  -->
<svg version="1.0" id="Layer_1" xmlns="http://www.w3.org/2000/svg" xmlns:xlink="http://www.w3.org/1999/xlink" x="0px" y="0px"
	 viewBox="0 0 1046.3 808.1" style="enable-background:new 0 0 1046.3 808.1;" xml:space="preserve">
<style type="text/css">
	.st0{fill:#1E4BC6;}
	.st1{fill:#FFFFFF;}
	.st2{fill:none;}
</style>
<path id="path6709" class="st0" d="M842.1,309.4c-7.5-58.6-28.5-111.9-65.3-150.9l0,0c-39-36.8-92.4-57.8-151-65.3
	c-56.3-7.5-94.6-5.2-94.6-5.2s-38.3-1.5-94.6,5.2c-58.5,7.5-111.8,28.5-150.8,65.3l0,0c-36.8,39-57.8,92.4-65.3,151
	c-7.5,56.3-6,94.6-6,94.6s-1.5,38.3,5.3,94.6c7.5,58.6,28.5,111.9,65.3,151l0,0c39.1,36.8,92.4,57.8,151,65.3
	c56.3,7.5,94.6,5.3,94.6,5.3s38.3,1.5,94.6-5.3c58.6-7.5,111.9-28.5,151-65.3l0,0c36.8-39,57.8-92.4,65.3-151
	c7.5-56.3,5.3-94.6,5.3-94.6s3-38.3-4.5-94.6"/>
<path id="path6711" class="st1" d="M331.4,311.7v166h30.8v-47.3h25.5c9,0,17.3-1.5,24-4.5c7-3.1,13.4-7.4,18.8-12.8
	c5.5-5.3,9.9-11.7,12.8-18.8c6-14.9,6-31.6,0-46.6c-6.1-14.1-17.4-25.4-31.5-31.5c-7.6-3.1-15.8-4.6-24-4.5L331.4,311.7z
	 M361.4,339.5h24c4.4,0,8.7,0.7,12.8,2.3c3.7,1.5,7,3.8,9.8,6.8c2.4,3,4.5,6.3,6,9.8c3,7.7,3,16.3,0,24c-1.3,3.7-3.3,7-6,9.8
	c-2.7,2.9-6.1,5.2-9.8,6.8c-4,1.5-8.3,2.3-12.7,2.3h-24L361.4,339.5L361.4,339.5z M519.1,344c-8.5,0-16.9,1.5-24.8,4.5
	c-7.5,3-15,6.8-21,12.8c-6.2,6-11.3,13.1-15,21c-3.8,8.3-5.2,18-5.2,28.5c-0.1,9.8,2,19.6,6,28.5c3.7,7.9,8.8,15,15,21
	c6.3,5.4,13.3,9.7,21,12.8c7.7,2.9,15.8,4.5,24,4.5c8.2,0.1,16.4-1.4,24-4.5c7.5-3.8,14.3-8.3,18.8-14.3v18.8h30.8V344H562v17.3
	c-5.3-5.5-11.7-9.8-18.8-12.8C536.5,345.5,528.2,344,519.1,344L519.1,344z M603.3,344.7l54.1,126.9l-27.8,66.8h31.5L740,344.7h-32.3
	l-34.5,90.9l-37.5-90.9L603.3,344.7z M524.4,372.5c5.3,0,10.5,0.8,15.8,3.8c4.8,1.8,9.1,4.7,12.8,8.2c3.8,3,6,7.5,8.3,12s3,9.8,3,15
	s-0.8,10.5-3,15c-2,4.4-4.8,8.5-8.3,12c-3.8,3.8-8.2,6-12.8,8.3s-9.8,3-15.8,3c-5.4-0.1-10.7-1.1-15.8-3c-4.5-2.3-9-4.5-12.8-8.3
	c-3.2-3.9-5.9-8.2-8.2-12.7c-2.2-4.5-3-9.8-3-15s0.8-10.5,3-15c1.5-4.5,4.5-8.3,8.3-12c3.6-3.6,8-6.4,12.7-8.3
	C513.7,373.5,519,372.4,524.4,372.5L524.4,372.5z"/>
<rect x="181.7" y="62.6" class="st2" width="683" height="683"/>
</svg>
